<svg width="38" height="38" viewBox="0 0 38 38" fill="none" xmlns="http://www.w3.org/2000/svg">
<path d="M17.5 0.866025C18.4282 0.330127 19.5718 0.330127 20.5 0.866025L33.9545 8.63398C34.8827 9.16987 35.4545 10.1603 35.4545 11.2321V26.768C35.4545 27.8397 34.8827 28.8301 33.9545 29.366L20.5 37.134C19.5718 37.6699 18.4282 37.6699 17.5 37.134L4.04552 29.366C3.11731 28.8301 2.54552 27.8397 2.54552 26.768V11.232C2.54552 10.1603 3.11731 9.16987 4.04552 8.63398L17.5 0.866025Z" fill="#1362C2"/>
<path d="M19.9106 8.00146V11.7808C19.9106 12.3608 19.8579 12.8032 19.7524 13.1079C19.6499 13.4097 19.4478 13.6499 19.146 13.8286C18.8442 14.0044 18.4355 14.0923 17.9199 14.0923C17.4658 14.0923 17.0557 14.0439 16.6895 13.9473V12.5146C16.9473 12.5879 17.1875 12.6245 17.4102 12.6245C17.6738 12.6245 17.8613 12.5645 17.9727 12.4443C18.084 12.3213 18.1396 12.1001 18.1396 11.7808V8.00146H19.9106ZM20.9126 20.5674V22H16.3994V16.0015H20.9126V17.3857H18.2056V18.2559H20.394V19.5874H18.2056V20.5674H20.9126ZM18.5044 30.0923C17.6606 30.0923 16.9722 29.8125 16.439 29.2529C15.9087 28.6934 15.6436 27.9448 15.6436 27.0073C15.6436 26.1108 15.897 25.3711 16.4038 24.7881C16.9136 24.2021 17.6196 23.9092 18.522 23.9092C19.3569 23.9092 20.0366 24.1846 20.561 24.7354C21.0884 25.2861 21.3521 26.0215 21.3521 26.9414C21.3521 27.8936 21.0869 28.6567 20.5566 29.231C20.0264 29.8052 19.3423 30.0923 18.5044 30.0923ZM18.4956 28.73C18.8062 28.73 19.0288 28.5952 19.1636 28.3257C19.3013 28.0532 19.3701 27.5566 19.3701 26.8359C19.3701 25.793 19.0903 25.2715 18.5308 25.2715C17.9272 25.2715 17.6255 25.8662 17.6255 27.0557C17.6255 28.1719 17.9155 28.73 18.4956 28.73Z" fill="white"/>
</svg>
