<svg width="44" height="55" viewBox="0 0 44 55" fill="none" xmlns="http://www.w3.org/2000/svg">
<g filter="url(#filter0_d_0_10)">
<path d="M23.958 43.9888C28.4668 38.3316 38.75 24.6204 38.75 16.9188C38.75 7.57821 31.1914 0 21.875 0C12.5586 0 5 7.57821 5 16.9188C5 24.6204 15.2832 38.3316 19.792 43.9888C20.873 45.3371 22.877 45.3371 23.958 43.9888ZM21.875 22.5584C18.7725 22.5584 16.25 20.0294 16.25 16.9188C16.25 13.8082 18.7725 11.2792 21.875 11.2792C24.9775 11.2792 27.5 13.8082 27.5 16.9188C27.5 20.0294 24.9775 22.5584 21.875 22.5584Z" fill="#FF0E1F"/>
</g>
<defs>
<filter id="filter0_d_0_10" x="0" y="0" width="43.75" height="55" filterUnits="userSpaceOnUse" color-interpolation-filters="sRGB">
<feFlood flood-opacity="0" result="BackgroundImageFix"/>
<feColorMatrix in="SourceAlpha" type="matrix" values="0 0 0 0 0 0 0 0 0 0 0 0 0 0 0 0 0 0 127 0" result="hardAlpha"/>
<feOffset dy="5"/>
<feGaussianBlur stdDeviation="2.5"/>
<feComposite in2="hardAlpha" operator="out"/>
<feColorMatrix type="matrix" values="0 0 0 0 0.879167 0 0 0 0 0.498194 0 0 0 0 0.498194 0 0 0 1 0"/>
<feBlend mode="normal" in2="BackgroundImageFix" result="effect1_dropShadow_0_10"/>
<feBlend mode="normal" in="SourceGraphic" in2="effect1_dropShadow_0_10" result="shape"/>
</filter>
</defs>
</svg>
