<?xml version="1.0" standalone="no"?>
<!DOCTYPE svg PUBLIC "-//W3C//DTD SVG 20010904//EN"
 "http://www.w3.org/TR/2001/REC-SVG-20010904/DTD/svg10.dtd">
<svg version="1.0" xmlns="http://www.w3.org/2000/svg"
 width="700.000000pt" height="700.000000pt" viewBox="0 0 700.000000 700.000000"
 preserveAspectRatio="xMidYMid meet">
<metadata>
Created by potrace 1.14, written by Peter Selinger 2001-2017
</metadata>
<g transform="translate(0.000000,700.000000) scale(0.100000,-0.100000)"
fill="#000000" stroke="none">
<path d="M3404 6904 c-93 -16 -116 -27 -415 -200 -140 -80 -270 -155 -289
-166 -19 -11 -183 -106 -365 -211 -181 -105 -442 -255 -580 -335 -137 -79
-295 -170 -350 -202 -55 -32 -230 -133 -390 -225 -307 -177 -340 -198 -394
-255 -31 -32 -101 -132 -101 -144 0 -3 -5 -17 -12 -33 -6 -15 -12 -32 -14 -38
-2 -5 -6 -21 -11 -35 -4 -14 -9 -709 -10 -1545 -3 -1636 -5 -1560 47 -1678 19
-43 83 -132 119 -167 37 -36 95 -74 246 -160 140 -81 527 -304 685 -395 30
-18 98 -57 150 -87 108 -62 719 -416 853 -492 48 -28 96 -55 105 -61 27 -16
244 -141 282 -163 19 -11 94 -54 167 -96 189 -109 243 -128 368 -128 122 -1
203 26 362 118 195 113 409 236 448 258 22 13 81 47 130 75 50 29 108 63 130
75 112 63 383 221 407 237 15 11 30 19 33 19 3 0 34 18 70 39 36 22 74 42 85
46 11 3 20 11 20 16 0 5 4 9 9 9 5 0 208 115 452 257 244 141 462 266 485 278
22 13 59 35 82 49 23 14 44 26 47 26 13 0 82 57 127 105 56 58 103 143 129
229 18 58 19 130 19 1571 0 1677 4 1561 -68 1698 -35 68 -130 174 -177 199
-14 7 -88 50 -166 96 -77 45 -145 82 -150 82 -5 0 -9 5 -9 10 0 6 -4 10 -10
10 -5 0 -55 27 -111 60 -55 33 -102 60 -104 60 -2 0 -36 19 -77 43 -40 24 -93
55 -118 69 -25 14 -85 49 -135 78 -49 29 -103 60 -120 70 -16 9 -102 59 -190
110 -88 51 -176 101 -195 112 -19 11 -51 29 -70 40 -80 46 -548 317 -580 335
-19 11 -142 82 -273 158 -131 75 -268 148 -306 160 -84 29 -173 35 -267 19z"/>
</g>
</svg>
